<svg width="32" height="32" viewBox="0 0 32 32" fill="none" xmlns="http://www.w3.org/2000/svg">
<path d="M29.999 15.966C29.999 23.697 23.731 29.966 15.999 29.966C8.268 29.966 2 23.697 2 15.966C2 8.234 8.268 1.966 16 1.966C23.731 1.966 29.999 8.234 29.999 15.966Z" fill="#9F70B8"/>
<path d="M2.022 15.175C2.50908 15.0194 3.0234 14.9679 3.53166 15.0238C4.03992 15.0796 4.53078 15.2416 4.97244 15.4992C5.41411 15.7569 5.79673 16.1044 6.09553 16.5194C6.39434 16.9343 6.60265 17.4073 6.70699 17.9079C6.81132 18.4085 6.80935 18.9254 6.70121 19.4251C6.59306 19.9249 6.38115 20.3963 6.07919 20.809C5.77724 21.2216 5.39198 21.5662 4.94836 21.8205C4.50475 22.0747 4.01267 22.233 3.504 22.285C2.39049 20.0875 1.87914 17.6343 2.022 15.175ZM26.157 25.6C24.4553 27.3966 22.3077 28.7098 19.933 29.406C19.4782 28.5827 19.3586 27.6157 19.5992 26.7065C19.8397 25.7973 20.4219 25.016 21.2244 24.5254C22.0268 24.0348 22.9876 23.8728 23.9066 24.0732C24.8255 24.2736 25.6316 24.8209 26.157 25.601V25.6ZM29.954 17.092C29.8221 18.7654 29.3884 20.401 28.674 21.92C28.3507 21.8418 28.0462 21.6998 27.7784 21.5024C27.5107 21.305 27.2851 21.0561 27.1149 20.7703C26.9446 20.4845 26.8332 20.1676 26.7871 19.8381C26.741 19.5087 26.7612 19.1733 26.8464 18.8518C26.9317 18.5302 27.0803 18.2289 27.2835 17.9656C27.4868 17.7023 27.7406 17.4822 28.0301 17.3183C28.3195 17.1543 28.6388 17.0499 28.9692 17.011C29.2996 16.9722 29.6344 16.9997 29.954 17.092ZM15.492 7.99998C16.1542 7.99998 16.7894 7.73691 17.2576 7.26863C17.7259 6.80035 17.989 6.16523 17.989 5.50298C17.989 4.84074 17.7259 4.20561 17.2576 3.73734C16.7894 3.26906 16.1542 3.00598 15.492 3.00598C14.8298 3.00598 14.1946 3.26906 13.7264 3.73734C13.2581 4.20561 12.995 4.84074 12.995 5.50298C12.995 6.16523 13.2581 6.80035 13.7264 7.26863C14.1946 7.73691 14.8298 7.99998 15.492 7.99998ZM14.789 22.615C15.839 23.437 16.126 24.826 15.429 25.717C14.732 26.607 13.315 26.662 12.264 25.84C11.214 25.017 10.928 23.629 11.624 22.738C12.322 21.848 13.739 21.792 14.789 22.615Z" fill="#6B438B"/>
<path d="M10.6699 8.03998C10.0123 8.04024 9.38164 8.30161 8.91661 8.76665C8.45158 9.23168 8.19021 9.86232 8.18994 10.52C8.18994 10.6526 8.13726 10.7798 8.04349 10.8735C7.94973 10.9673 7.82255 11.02 7.68994 11.02C7.55733 11.02 7.43016 10.9673 7.33639 10.8735C7.24262 10.7798 7.18994 10.6526 7.18994 10.52C7.19021 9.59711 7.55693 8.71211 8.2095 8.05954C8.86207 7.40697 9.74707 7.04024 10.6699 7.03998C10.8025 7.03998 10.9297 7.09266 11.0235 7.18642C11.1173 7.28019 11.1699 7.40737 11.1699 7.53998C11.1699 7.67259 11.1173 7.79976 11.0235 7.89353C10.9297 7.9873 10.8025 8.03998 10.6699 8.03998ZM20.5499 7.53998C20.5499 7.40737 20.6026 7.28019 20.6964 7.18642C20.7902 7.09266 20.9173 7.03998 21.0499 7.03998C21.9728 7.04024 22.8578 7.40697 23.5104 8.05954C24.1629 8.71211 24.5297 9.59711 24.5299 10.52C24.5299 10.6526 24.4773 10.7798 24.3835 10.8735C24.2897 10.9673 24.1625 11.02 24.0299 11.02C23.8973 11.02 23.7702 10.9673 23.6764 10.8735C23.5826 10.7798 23.5299 10.6526 23.5299 10.52C23.5297 9.86232 23.2683 9.23168 22.8033 8.76665C22.3382 8.30161 21.7076 8.04024 21.0499 8.03998C20.9173 8.03998 20.7902 7.9873 20.6964 7.89353C20.6026 7.79976 20.5499 7.67259 20.5499 7.53998ZM10.3079 12.384C10.4097 12.1276 10.5865 11.9079 10.8153 11.7537C11.0441 11.5995 11.3141 11.5181 11.5899 11.52C12.1979 11.52 12.7159 11.914 12.8979 12.465C12.9638 12.6493 13.0991 12.8006 13.275 12.8866C13.4509 12.9725 13.6534 12.9863 13.8393 12.9249C14.0252 12.8636 14.1797 12.7319 14.2699 12.5582C14.3601 12.3844 14.3788 12.1823 14.3219 11.995C14.1322 11.4203 13.766 10.92 13.2755 10.5654C12.785 10.2108 12.1952 10.02 11.5899 10.02C11.0127 10.0181 10.4483 10.1904 9.97051 10.5144C9.49274 10.8384 9.12381 11.299 8.91194 11.836C8.84382 12.0201 8.85064 12.2236 8.93092 12.4028C9.0112 12.582 9.15854 12.7226 9.34131 12.7943C9.52407 12.8661 9.72769 12.8633 9.90842 12.7865C10.0892 12.7098 10.2326 12.5653 10.3079 12.384ZM20.2099 11.52C19.9341 11.5182 19.6642 11.5997 19.4354 11.7539C19.2067 11.908 19.0298 12.1276 18.9279 12.384C18.8933 12.4775 18.8404 12.5632 18.7723 12.6361C18.7042 12.7089 18.6222 12.7674 18.5312 12.8082C18.4402 12.849 18.3419 12.8712 18.2422 12.8736C18.1425 12.8759 18.0433 12.8584 17.9505 12.8219C17.8576 12.7855 17.773 12.7309 17.7015 12.6613C17.63 12.5918 17.5731 12.5087 17.5341 12.4168C17.4952 12.325 17.4749 12.2264 17.4745 12.1266C17.4741 12.0269 17.4937 11.9281 17.5319 11.836C17.7438 11.299 18.1127 10.8384 18.5905 10.5144C19.0683 10.1904 19.6327 10.0181 20.2099 10.02C21.4819 10.02 22.5639 10.846 22.9419 11.995C22.9988 12.1823 22.9801 12.3844 22.8899 12.5582C22.7997 12.7319 22.6452 12.8636 22.4593 12.9249C22.2734 12.9863 22.0709 12.9725 21.895 12.8866C21.7191 12.8006 21.5838 12.6493 21.5179 12.465C21.3359 11.915 20.8179 11.52 20.2099 11.52ZM11.9699 16.58C11.8278 16.4475 11.6397 16.3754 11.4454 16.3788C11.2511 16.3822 11.0657 16.4609 10.9283 16.5984C10.7909 16.7358 10.7122 16.9212 10.7088 17.1155C10.7053 17.3098 10.7775 17.4978 10.9099 17.64C11.5619 18.2921 12.336 18.8093 13.1879 19.1622C14.0398 19.5151 14.9528 19.6968 15.8749 19.6968C16.797 19.6968 17.7101 19.5151 18.562 19.1622C19.4139 18.8093 20.188 18.2921 20.8399 17.64C20.9136 17.5713 20.9727 17.4885 21.0137 17.3965C21.0547 17.3045 21.0768 17.2052 21.0785 17.1045C21.0803 17.0038 21.0618 16.9038 21.0241 16.8104C20.9863 16.717 20.9302 16.6322 20.859 16.5609C20.7878 16.4897 20.7029 16.4336 20.6095 16.3959C20.5162 16.3581 20.4161 16.3396 20.3154 16.3414C20.2147 16.3432 20.1154 16.3652 20.0234 16.4062C19.9314 16.4472 19.8486 16.5063 19.7799 16.58C19.2673 17.0931 18.6586 17.5001 17.9885 17.7779C17.3185 18.0556 16.6003 18.1985 15.8749 18.1985C15.1496 18.1985 14.4314 18.0556 13.7614 17.7779C13.0913 17.5001 12.4826 17.0931 11.9699 16.58Z" fill="#321B41"/>
</svg>
