<svg width="32" height="32" viewBox="0 0 32 32" fill="none" xmlns="http://www.w3.org/2000/svg">
<path d="M30 16C30 23.225 24.527 29.172 17.5 29.92C17.007 29.973 16.507 29 16 29C8.268 29 5 23.732 5 16C5 8.26802 8.268 4.00002 16 4.00002C16.458 4.00002 16.911 2.02202 17.358 2.06502C24.453 2.74802 30 8.72602 30 16Z" fill="#8D65C5"/>
<path d="M22.5 14C23.163 14 23.7989 13.7366 24.2678 13.2678C24.7366 12.7989 25 12.163 25 11.5C25 10.837 24.7366 10.2011 24.2678 9.73223C23.7989 9.26339 23.163 9 22.5 9C21.837 9 21.2011 9.26339 20.7322 9.73223C20.2634 10.2011 20 10.837 20 11.5C20 12.163 20.2634 12.7989 20.7322 13.2678C21.2011 13.7366 21.837 14 22.5 14ZM24.882 26.823C26.6735 25.3517 28.0728 23.4598 28.955 21.316C28.2248 20.9814 27.4018 20.9082 26.624 21.1085C25.8462 21.3089 25.161 21.7707 24.6834 22.4163C24.2057 23.062 23.9646 23.8524 24.0006 24.6547C24.0366 25.4571 24.3474 26.2227 24.881 26.823H24.882Z" fill="#6B438B"/>
<path d="M17.4 2.07C16.94 2.022 16.472 2 16 2C8.268 2 2 8.268 2 16C2 23.732 8.268 30 16 30C16.472 30 16.94 29.977 17.4 29.93C21.428 26.63 24 21.616 24 16C24 15.247 23.954 14.506 23.864 13.777C23.4336 13.6009 23.0501 13.3272 22.7436 12.9774C22.4372 12.6277 22.2162 12.2116 22.098 11.7618C21.9799 11.3121 21.968 10.841 22.063 10.3859C22.1581 9.93069 22.3577 9.50385 22.646 9.139C21.5075 6.38583 19.7053 3.95728 17.4 2.07Z" fill="#FCD53F"/>
<path d="M17 5.5C17 5.89782 16.842 6.27936 16.5607 6.56066C16.2794 6.84196 15.8978 7 15.5 7C15.1022 7 14.7206 6.84196 14.4393 6.56066C14.158 6.27936 14 5.89782 14 5.5C14 5.10218 14.158 4.72064 14.4393 4.43934C14.7206 4.15804 15.1022 4 15.5 4C15.8978 4 16.2794 4.15804 16.5607 4.43934C16.842 4.72064 17 5.10218 17 5.5ZM19 21.5C19 22.163 18.7366 22.7989 18.2678 23.2678C17.7989 23.7366 17.163 24 16.5 24C15.837 24 15.2011 23.7366 14.7322 23.2678C14.2634 22.7989 14 22.163 14 21.5C14 20.837 14.2634 20.2011 14.7322 19.7322C15.2011 19.2634 15.837 19 16.5 19C17.163 19 17.7989 19.2634 18.2678 19.7322C18.7366 20.2011 19 20.837 19 21.5ZM13 12.5C13 12.0404 12.9095 11.5852 12.7336 11.1606C12.5577 10.736 12.2999 10.3501 11.9749 10.0251C11.6499 9.70012 11.264 9.44231 10.8394 9.26642C10.4148 9.09053 9.95963 9 9.5 9C9.04037 9 8.58525 9.09053 8.16061 9.26642C7.73597 9.44231 7.35013 9.70012 7.02513 10.0251C6.70012 10.3501 6.44231 10.736 6.26642 11.1606C6.09053 11.5852 6 12.0404 6 12.5C6 13.4283 6.36875 14.3185 7.02513 14.9749C7.6815 15.6313 8.57174 16 9.5 16C10.4283 16 11.3185 15.6313 11.9749 14.9749C12.6313 14.3185 13 13.4283 13 12.5ZM22.589 9.002C22.205 8.98844 21.8231 9.06356 21.4729 9.22153C21.1226 9.37949 20.8135 9.61606 20.5695 9.91286C20.3256 10.2097 20.1533 10.5587 20.066 10.9329C19.9788 11.307 19.979 11.6963 20.0666 12.0704C20.1542 12.4445 20.3268 12.7933 20.5711 13.0899C20.8154 13.3865 21.1247 13.6227 21.4751 13.7804C21.8255 13.938 22.2075 14.0127 22.5914 13.9988C22.9754 13.9849 23.351 13.8826 23.689 13.7C23.2851 13.504 22.9304 13.2198 22.651 12.8685C22.3716 12.5172 22.1746 12.1076 22.0745 11.67C21.9744 11.2324 21.9738 10.7779 22.0727 10.34C22.1716 9.90217 22.3675 9.49208 22.646 9.14C22.6272 9.09393 22.6082 9.04793 22.589 9.002ZM4.75 24.335C6.16239 26.2389 8.03342 27.7546 10.189 28.741C10.4835 28.3845 10.7044 27.9731 10.839 27.5307C10.9736 27.0883 11.0191 26.6236 10.9731 26.1634C10.927 25.7033 10.7902 25.2569 10.5706 24.8499C10.351 24.443 10.0529 24.0836 9.69358 23.7925C9.33425 23.5014 8.92081 23.2844 8.47713 23.1541C8.03345 23.0237 7.56834 22.9825 7.10867 23.033C6.649 23.0834 6.20388 23.2245 5.79904 23.448C5.39419 23.6714 5.03765 23.9729 4.75 24.335Z" fill="#F9C23C"/>
</svg>
