<svg width="32" height="32" viewBox="0 0 32 32" fill="none" xmlns="http://www.w3.org/2000/svg">
<path d="M30.0005 15.966C30.0005 23.697 23.7325 29.966 16.0005 29.966C8.26946 29.966 2.00146 23.697 2.00146 15.966C2.00146 8.234 8.26946 1.966 16.0015 1.966C23.7325 1.966 30.0005 8.234 30.0005 15.966Z" fill="#FCD53F"/>
<path d="M2.02347 15.175C2.51055 15.0194 3.02487 14.9679 3.53313 15.0238C4.04139 15.0796 4.53224 15.2416 4.97391 15.4992C5.41557 15.7569 5.7982 16.1044 6.097 16.5194C6.3958 16.9343 6.60412 17.4073 6.70845 17.9079C6.81279 18.4085 6.81082 18.9254 6.70267 19.4251C6.59453 19.9249 6.38261 20.3963 6.08066 20.809C5.77871 21.2216 5.39344 21.5662 4.94983 21.8205C4.50621 22.0747 4.01414 22.233 3.50547 22.285C2.39195 20.0875 1.8806 17.6343 2.02347 15.175ZM26.1585 25.6C24.4567 27.3966 22.3091 28.7098 19.9345 29.406C19.4796 28.5827 19.3601 27.6157 19.6006 26.7065C19.8412 25.7973 20.4234 25.016 21.2258 24.5254C22.0283 24.0348 22.9891 23.8728 23.908 24.0732C24.8269 24.2736 25.6331 24.8209 26.1585 25.601V25.6ZM29.9555 17.092C29.8235 18.7654 29.3899 20.401 28.6755 21.92C28.3521 21.8418 28.0476 21.6998 27.7799 21.5024C27.5122 21.305 27.2866 21.0561 27.1163 20.7703C26.9461 20.4845 26.8347 20.1676 26.7886 19.8381C26.7425 19.5087 26.7626 19.1733 26.8479 18.8518C26.9331 18.5302 27.0817 18.2289 27.285 17.9656C27.4883 17.7023 27.7421 17.4822 28.0315 17.3183C28.321 17.1543 28.6403 17.0499 28.9707 17.011C29.3011 16.9722 29.6359 16.9997 29.9555 17.092ZM15.4935 7.99998C16.1557 7.99998 16.7908 7.73691 17.2591 7.26863C17.7274 6.80035 17.9905 6.16523 17.9905 5.50298C17.9905 4.84074 17.7274 4.20561 17.2591 3.73734C16.7908 3.26906 16.1557 3.00598 15.4935 3.00598C14.8312 3.00598 14.1961 3.26906 13.7278 3.73734C13.2595 4.20561 12.9965 4.84074 12.9965 5.50298C12.9965 6.16523 13.2595 6.80035 13.7278 7.26863C14.1961 7.73691 14.8312 7.99998 15.4935 7.99998ZM14.7905 22.615C15.8405 23.437 16.1275 24.826 15.4305 25.717C14.7335 26.607 13.3165 26.662 12.2655 25.84C11.2155 25.017 10.9295 23.629 11.6255 22.738C12.3235 21.848 13.7405 21.792 14.7905 22.615Z" fill="#F9C23C"/>
<path d="M10.6714 8.03998C10.0138 8.04024 9.38311 8.30161 8.91807 8.76665C8.45304 9.23168 8.19167 9.86232 8.19141 10.52C8.19141 10.6526 8.13873 10.7798 8.04496 10.8735C7.95119 10.9673 7.82401 11.02 7.69141 11.02C7.5588 11.02 7.43162 10.9673 7.33785 10.8735C7.24408 10.7798 7.19141 10.6526 7.19141 10.52C7.19167 9.59711 7.5584 8.71211 8.21097 8.05954C8.86354 7.40697 9.74853 7.04024 10.6714 7.03998C10.804 7.03998 10.9312 7.09266 11.025 7.18642C11.1187 7.28019 11.1714 7.40737 11.1714 7.53998C11.1714 7.67259 11.1187 7.79976 11.025 7.89353C10.9312 7.9873 10.804 8.03998 10.6714 8.03998ZM20.5514 7.53998C20.5514 7.40737 20.6041 7.28019 20.6979 7.18642C20.7916 7.09266 20.9188 7.03998 21.0514 7.03998C21.9743 7.04024 22.8593 7.40697 23.5118 8.05954C24.1644 8.71211 24.5311 9.59711 24.5314 10.52C24.5314 10.6526 24.4787 10.7798 24.385 10.8735C24.2912 10.9673 24.164 11.02 24.0314 11.02C23.8988 11.02 23.7716 10.9673 23.6779 10.8735C23.5841 10.7798 23.5314 10.6526 23.5314 10.52C23.5311 9.86232 23.2698 9.23168 22.8047 8.76665C22.3397 8.30161 21.7091 8.04024 21.0514 8.03998C20.9188 8.03998 20.7916 7.9873 20.6979 7.89353C20.6041 7.79976 20.5514 7.67259 20.5514 7.53998ZM10.3094 12.384C10.4112 12.1276 10.588 11.9079 10.8168 11.7537C11.0455 11.5995 11.3155 11.5181 11.5914 11.52C12.1994 11.52 12.7174 11.914 12.8994 12.465C12.9653 12.6493 13.1006 12.8006 13.2765 12.8866C13.4524 12.9725 13.6549 12.9863 13.8408 12.9249C14.0267 12.8636 14.1812 12.7319 14.2714 12.5582C14.3616 12.3844 14.3802 12.1823 14.3234 11.995C14.1336 11.4203 13.7675 10.92 13.277 10.5654C12.7865 10.2108 12.1966 10.02 11.5914 10.02C11.0141 10.0181 10.4497 10.1904 9.97197 10.5144C9.4942 10.8384 9.12527 11.299 8.91341 11.836C8.84529 12.0201 8.8521 12.2236 8.93238 12.4028C9.01266 12.582 9.16001 12.7226 9.34277 12.7943C9.52554 12.8661 9.72915 12.8633 9.90988 12.7865C10.0906 12.7098 10.2341 12.5653 10.3094 12.384ZM20.2114 11.52C19.9356 11.5182 19.6656 11.5997 19.4369 11.7539C19.2082 11.908 19.0313 12.1276 18.9294 12.384C18.8948 12.4775 18.8419 12.5632 18.7738 12.6361C18.7056 12.7089 18.6237 12.7674 18.5326 12.8082C18.4416 12.849 18.3434 12.8712 18.2437 12.8736C18.144 12.8759 18.0448 12.8584 17.9519 12.8219C17.8591 12.7855 17.7745 12.7309 17.703 12.6613C17.6315 12.5918 17.5746 12.5087 17.5356 12.4168C17.4966 12.325 17.4764 12.2264 17.476 12.1266C17.4756 12.0269 17.4951 11.9281 17.5334 11.836C17.7453 11.299 18.1142 10.8384 18.592 10.5144C19.0697 10.1904 19.6341 10.0181 20.2114 10.02C21.4834 10.02 22.5654 10.846 22.9434 11.995C23.0002 12.1823 22.9816 12.3844 22.8914 12.5582C22.8012 12.7319 22.6467 12.8636 22.4608 12.9249C22.2749 12.9863 22.0724 12.9725 21.8965 12.8866C21.7206 12.8006 21.5853 12.6493 21.5194 12.465C21.3374 11.915 20.8194 11.52 20.2114 11.52ZM11.9714 16.58C11.8292 16.4475 11.6412 16.3754 11.4469 16.3788C11.2526 16.3822 11.0672 16.4609 10.9298 16.5984C10.7924 16.7358 10.7137 16.9212 10.7102 17.1155C10.7068 17.3098 10.7789 17.4978 10.9114 17.64C11.5634 18.2921 12.3374 18.8093 13.1893 19.1622C14.0412 19.5151 14.9543 19.6968 15.8764 19.6968C16.7985 19.6968 17.7116 19.5151 18.5635 19.1622C19.4154 18.8093 20.1894 18.2921 20.8414 17.64C20.9151 17.5713 20.9742 17.4885 21.0152 17.3965C21.0562 17.3045 21.0782 17.2052 21.08 17.1045C21.0818 17.0038 21.0632 16.9038 21.0255 16.8104C20.9878 16.717 20.9317 16.6322 20.8604 16.5609C20.7892 16.4897 20.7044 16.4336 20.611 16.3959C20.5176 16.3581 20.4176 16.3396 20.3169 16.3414C20.2162 16.3432 20.1169 16.3652 20.0249 16.4062C19.9329 16.4472 19.8501 16.5063 19.7814 16.58C19.2688 17.0931 18.66 17.5001 17.99 17.7779C17.3199 18.0556 16.6017 18.1985 15.8764 18.1985C15.1511 18.1985 14.4329 18.0556 13.7628 17.7779C13.0928 17.5001 12.4841 17.0931 11.9714 16.58Z" fill="#321B41"/>
</svg>
