<svg width="32" height="32" viewBox="0 0 32 32" fill="none" xmlns="http://www.w3.org/2000/svg">
<path d="M27 16C27 23.732 24 27.5 16 30C8.268 30 2 23.732 2 16C2 8.268 8.268 2 16 2C23 4.5 27 8.268 27 16Z" fill="#FCD53F"/>
<path d="M16 30V2C23.732 2 30 8.268 30 16C30 23.732 23.732 30 16 30Z" fill="#8D65C5"/>
<path d="M16 4.085C15.7738 4.00543 15.5319 3.98125 15.2944 4.01447C15.0569 4.04769 14.8309 4.13735 14.6352 4.27594C14.4396 4.41452 14.28 4.598 14.1698 4.81097C14.0597 5.02395 14.0022 5.26023 14.0022 5.5C14.0022 5.73977 14.0597 5.97605 14.1698 6.18903C14.28 6.402 14.4396 6.58548 14.6352 6.72406C14.8309 6.86265 15.0569 6.95231 15.2944 6.98553C15.5319 7.01875 15.7738 6.99457 16 6.915V4.085ZM16 19.05C15.4349 19.1648 14.9268 19.4714 14.5618 19.9179C14.1969 20.3644 13.9975 20.9233 13.9975 21.5C13.9975 22.0767 14.1969 22.6356 14.5618 23.0821C14.9268 23.5286 15.4349 23.8352 16 23.95V19.05ZM13 12.5C13 12.9596 12.9095 13.4148 12.7336 13.8394C12.5577 14.264 12.2999 14.6499 11.9749 14.9749C11.6499 15.2999 11.264 15.5577 10.8394 15.7336C10.4148 15.9095 9.95963 16 9.5 16C9.04037 16 8.58525 15.9095 8.16061 15.7336C7.73597 15.5577 7.35013 15.2999 7.02513 14.9749C6.70012 14.6499 6.44231 14.264 6.26642 13.8394C6.09053 13.4148 6 12.9596 6 12.5C6 11.5717 6.36875 10.6815 7.02513 10.0251C7.6815 9.36875 8.57174 9 9.5 9C10.4283 9 11.3185 9.36875 11.9749 10.0251C12.6313 10.6815 13 11.5717 13 12.5ZM10.189 28.74C8.03354 27.7538 6.16252 26.2385 4.75 24.335C5.03765 23.9729 5.39419 23.6714 5.79904 23.448C6.20388 23.2245 6.649 23.0834 7.10867 23.033C7.56834 22.9825 8.03345 23.0237 8.47713 23.1541C8.92081 23.2844 9.33425 23.5014 9.69358 23.7925C10.0529 24.0836 10.351 24.443 10.5706 24.8499C10.7902 25.2569 10.927 25.7033 10.9731 26.1634C11.0191 26.6236 10.9736 27.0883 10.839 27.5307C10.7044 27.9731 10.4835 28.3845 10.189 28.741V28.74Z" fill="#F9C23C"/>
<path d="M17 5.50002C17.0002 5.81035 16.9041 6.11309 16.725 6.36651C16.5459 6.61994 16.2926 6.81158 16 6.91502V4.08502C16.2926 4.18846 16.5459 4.3801 16.725 4.63353C16.9041 4.88696 17.0002 5.1897 17 5.50002ZM22.5 14C23.163 14 23.7989 13.7366 24.2678 13.2678C24.7366 12.7989 25 12.1631 25 11.5C25 10.837 24.7366 10.2011 24.2678 9.73225C23.7989 9.26341 23.163 9.00002 22.5 9.00002C21.837 9.00002 21.2011 9.26341 20.7322 9.73225C20.2634 10.2011 20 10.837 20 11.5C20 12.1631 20.2634 12.7989 20.7322 13.2678C21.2011 13.7366 21.837 14 22.5 14ZM24.882 26.823C26.6735 25.3518 28.0728 23.4598 28.955 21.316C28.2248 20.9815 27.4018 20.9082 26.624 21.1086C25.8462 21.3089 25.161 21.7707 24.6834 22.4164C24.2057 23.0621 23.9646 23.8524 24.0006 24.6547C24.0366 25.4571 24.3474 26.2227 24.881 26.823H24.882ZM16 23.95V19.05C16.3417 18.9807 16.6941 18.9836 17.0347 19.0585C17.3752 19.1335 17.6962 19.2788 17.9772 19.4853C18.2583 19.6917 18.493 19.9546 18.6663 20.2571C18.8397 20.5596 18.9478 20.8951 18.9838 21.2419C19.0199 21.5887 18.9829 21.9392 18.8754 22.2709C18.7679 22.6025 18.5922 22.9081 18.3596 23.1678C18.127 23.4276 17.8427 23.6358 17.5248 23.7791C17.207 23.9224 16.8627 23.9977 16.514 24H16.486C16.3228 23.9992 16.16 23.9824 16 23.95Z" fill="#6B438B"/>
</svg>
