<svg width="32" height="32" viewBox="0 0 32 32" fill="none" xmlns="http://www.w3.org/2000/svg">
<path d="M27 16C27 23.732 23.5 28.5 16 30C8.268 30 2 23.732 2 16C2 8.268 8.268 2 16 2C22.5 4.5 27 8.268 27 16Z" fill="#FCD53F"/>
<path d="M15.681 29.996C15.787 29.999 15.893 30 16 30C23.732 30 30 23.732 30 16C30 8.268 23.732 2 16 2C15.893 2 15.787 2.001 15.68 2.004C11.606 5.304 9.00001 10.348 9.00001 16C8.99726 18.6838 9.59596 21.3342 10.7521 23.7562C11.9083 26.1783 13.5925 28.3104 15.681 29.996Z" fill="#8D65C5"/>
<path d="M9.5 16C10.4283 16 11.3185 15.6313 11.9749 14.9749C12.6313 14.3185 13 13.4283 13 12.5C13 11.5717 12.6313 10.6815 11.9749 10.0251C11.3185 9.36875 10.4283 9 9.5 9C8.57174 9 7.6815 9.36875 7.02513 10.0251C6.36875 10.6815 6 11.5717 6 12.5C6 13.4283 6.36875 14.3185 7.02513 14.9749C7.6815 15.6313 8.57174 16 9.5 16ZM4.75 24.335C6.16239 26.2389 8.03342 27.7546 10.189 28.741C10.4835 28.3845 10.7044 27.9731 10.839 27.5307C10.9736 27.0883 11.0191 26.6236 10.9731 26.1634C10.927 25.7033 10.7902 25.2569 10.5706 24.8499C10.351 24.443 10.0529 24.0836 9.69358 23.7925C9.33425 23.5014 8.92081 23.2844 8.47713 23.1541C8.03345 23.0237 7.56834 22.9825 7.10867 23.033C6.649 23.0834 6.20388 23.2245 5.79904 23.448C5.39419 23.6714 5.03765 23.9729 4.75 24.335Z" fill="#F9C23C"/>
<path d="M17 5.5C17 5.89782 16.842 6.27936 16.5607 6.56066C16.2794 6.84196 15.8978 7 15.5 7C15.1022 7 14.7206 6.84196 14.4393 6.56066C14.158 6.27936 14 5.89782 14 5.5C14 5.10218 14.158 4.72064 14.4393 4.43934C14.7206 4.15804 15.1022 4 15.5 4C15.8978 4 16.2794 4.15804 16.5607 4.43934C16.842 4.72064 17 5.10218 17 5.5ZM25 11.5C25 12.163 24.7366 12.7989 24.2678 13.2678C23.7989 13.7366 23.163 14 22.5 14C21.837 14 21.2011 13.7366 20.7322 13.2678C20.2634 12.7989 20 12.163 20 11.5C20 10.837 20.2634 10.2011 20.7322 9.73223C21.2011 9.26339 21.837 9 22.5 9C23.163 9 23.7989 9.26339 24.2678 9.73223C24.7366 10.2011 25 10.837 25 11.5ZM16.5 24C17.163 24 17.7989 23.7366 18.2678 23.2678C18.7366 22.7989 19 22.163 19 21.5C19 20.837 18.7366 20.2011 18.2678 19.7322C17.7989 19.2634 17.163 19 16.5 19C15.837 19 15.2011 19.2634 14.7322 19.7322C14.2634 20.2011 14 20.837 14 21.5C14 22.163 14.2634 22.7989 14.7322 23.2678C15.2011 23.7366 15.837 24 16.5 24ZM28.955 21.316C28.0729 23.4598 26.6735 25.3518 24.882 26.823C24.3484 26.2227 24.0376 25.4571 24.0016 24.6547C23.9656 23.8524 24.2067 23.062 24.6844 22.4163C25.162 21.7707 25.8472 21.3089 26.625 21.1085C27.4028 20.9082 28.2258 20.9814 28.956 21.316H28.955ZM9.001 15.772L9 15.964C9.88792 16.0945 10.7921 15.879 11.5256 15.3619C12.2591 14.8448 12.766 14.0657 12.9415 13.1856C13.117 12.3055 12.9477 11.3915 12.4685 10.6327C11.9894 9.87381 11.2371 9.32799 10.367 9.108C10.33 9.195 10.295 9.282 10.26 9.37C10.72 10.073 11 10.993 11 12C11 13.74 10.166 15.222 9.001 15.772Z" fill="#6B438B"/>
</svg>
